<svg width="511.999" height="511.999" xmlns="http://www.w3.org/2000/svg">

 <g>
  <title>background</title>
  <rect fill="none" id="canvas_background" height="402" width="582" y="-1" x="-1"/>
 </g>
 <g>
  <title>Layer 1</title>
  <path id="svg_1" fill="#DFDFE2" d="m402.915,467.736l0,-447.541c0,-6.95 -5.634,-12.585 -12.585,-12.585l-331.849,0c-6.95,0 -12.585,5.634 -12.585,12.585l0,427.563l0,3.627c0,29.274 23.731,53.005 53.005,53.005l3.627,0l300.387,-36.654z"/>
  <g id="svg_2" opacity="0.24">
   <path id="svg_3" fill="#ACAAB1" d="m72.927,497.585c7.677,4.325 16.533,6.805 25.974,6.805l3.627,0l300.387,-36.655l0,-233.291c-96.799,149.882 -252.177,230.33 -329.988,263.141z"/>
  </g>
  <polygon id="svg_4" fill="#5374FC" points="336.012,342.813 336.012,418.621 298.082,398.615 260.152,418.621 260.152,342.813 "/>
  <path id="svg_5" fill="#ACAAB1" d="m97.69,504.39l315.406,0c29.274,0 53.005,-23.731 53.005,-53.005l-25.334,0l-291.006,0c0,29.274 -23.731,53.005 -53.005,53.005"/>
  <path id="svg_6" opacity="0.19" fill="#494949" d="m446.493,451.385c-7.545,20.076 -26.912,34.365 -49.625,34.365l-257.362,0c-9.722,11.401 -24.182,18.64 -40.339,18.64l0.934,0l315.407,0c29.274,0 53.005,-23.731 53.005,-53.005l-22.02,0z"/>
  <g id="svg_7">
   <path id="svg_8" fill="#ACAAB1" d="m344.69,88.684l-234.704,0c-8.393,0 -15.261,-6.867 -15.261,-15.261l0,-0.66c0,-8.393 6.867,-15.261 15.261,-15.261l234.705,0c8.393,0 15.261,6.867 15.261,15.261l0,0.66c-0.001,8.394 -6.868,15.261 -15.262,15.261z"/>
   <path id="svg_9" fill="#ACAAB1" d="m344.69,148.452l-234.704,0c-8.393,0 -15.261,-6.867 -15.261,-15.261l0,-0.66c0,-8.393 6.867,-15.261 15.261,-15.261l234.705,0c8.393,0 15.261,6.867 15.261,15.261l0,0.66c-0.001,8.394 -6.868,15.261 -15.262,15.261z"/>
   <path id="svg_10" fill="#ACAAB1" d="m204.514,208.219l-92.161,0c-8.393,0 -15.261,-6.867 -15.261,-15.261l0,-0.66c0,-8.393 6.867,-15.261 15.261,-15.261l92.161,0c8.393,0 15.261,6.867 15.261,15.261l0,0.66c0,8.394 -6.867,15.261 -15.261,15.261z"/>
  </g>
  <polygon id="svg_11" fill="#4D53F1" points="298.082,342.813 298.082,398.615 336.012,418.621 336.012,342.813 "/>
  <circle id="svg_12" fill="#EEBF00" r="70.437" cy="283.443" cx="298.086"/>
  <circle id="svg_13" fill="#FFDF66" r="41.749" cy="283.443" cx="298.086"/>
  <path id="svg_14" opacity="0.12" fill="#663C1D" d="m332.73,222.123c5.794,10.233 9.119,22.05 9.119,34.649c0,38.903 -31.538,70.441 -70.441,70.441c-12.6,0 -24.416,-3.323 -34.649,-9.118c12.097,21.365 35.019,35.793 61.323,35.793c38.903,0 70.441,-31.538 70.441,-70.441c0,-26.305 -14.429,-49.227 -35.793,-61.324z"/>
  <path id="svg_15" d="m466.102,443.774l-55.575,0l0,-423.579c-0.001,-11.135 -9.061,-20.195 -20.196,-20.195l-331.85,0c-11.136,0 -20.195,9.06 -20.195,20.195l0,431.189c0,32.331 25.445,58.829 57.361,60.526c0.363,0.053 0.731,0.089 1.109,0.089c0.231,0 0.46,-0.001 0.69,-0.004c0.081,0.003 0.162,0.004 0.245,0.004l1.211,0l3.627,0l310.568,0c33.424,0 60.616,-27.193 60.616,-60.615c0,-4.203 -3.408,-7.61 -7.611,-7.61zm-368.273,52.977c-24.535,-0.573 -44.32,-20.696 -44.32,-45.367l0,-431.189c0,-2.742 2.231,-4.974 4.973,-4.974l331.85,0c2.742,0 4.974,2.232 4.974,4.974l0,423.578l-245.545,0c-4.204,0 -7.611,3.407 -7.611,7.611c0,24.671 -19.786,44.793 -44.321,45.367zm315.267,0.027l-276.21,0c10.764,-9.528 18.127,-22.813 20.011,-37.782l300.956,0c-3.63,21.419 -22.319,37.782 -44.757,37.782z"/>
  <path id="svg_16" d="m298.082,205.393c-43.039,0 -78.053,35.015 -78.053,78.052c0,26.051 12.841,49.145 32.512,63.331l0,71.846c0,2.667 1.396,5.139 3.681,6.518c2.282,1.376 5.122,1.457 7.481,0.214l34.379,-18.134l34.379,18.134c1.113,0.587 2.333,0.879 3.551,0.879c1.363,0 2.725,-0.365 3.93,-1.093c2.284,-1.378 3.681,-3.851 3.681,-6.518l0,-71.846c19.671,-14.186 32.511,-37.28 32.511,-63.331c0,-43.037 -35.015,-78.052 -78.052,-78.052zm30.319,200.609l-26.768,-14.12c-2.221,-1.171 -4.88,-1.171 -7.102,0l-26.768,14.12l0,-50.633c9.326,3.947 19.572,6.13 30.319,6.13s20.993,-2.184 30.319,-6.13l0,50.633l0,0zm-30.319,-59.725c-34.645,0 -62.831,-28.186 -62.831,-62.831s28.186,-62.83 62.831,-62.83s62.83,28.185 62.83,62.83c0,34.645 -28.185,62.831 -62.83,62.831z"/>
  <path id="svg_17" d="m298.082,234.089c-27.215,0 -49.357,22.141 -49.357,49.357c0,27.216 22.141,49.357 49.357,49.357c27.214,0 49.356,-22.141 49.356,-49.357c-0.001,-27.216 -22.142,-49.357 -49.356,-49.357zm0,83.491c-18.821,0 -34.135,-15.313 -34.135,-34.135s15.313,-34.135 34.135,-34.135s34.134,15.313 34.134,34.135s-15.313,34.135 -34.134,34.135z"/>
  <path id="svg_18" d="m109.986,96.295l234.704,0c12.612,0 22.871,-10.26 22.871,-22.871l0,-0.661c0,-12.611 -10.26,-22.871 -22.871,-22.871l-234.704,0c-12.612,0 -22.872,10.26 -22.872,22.871l0,0.661c0,12.611 10.26,22.871 22.872,22.871zm-7.65,-23.532c0,-4.217 3.432,-7.649 7.65,-7.649l234.704,0c4.217,0 7.65,3.431 7.65,7.649l0,0.661c0,4.217 -3.432,7.649 -7.65,7.649l-234.704,0c-4.217,0 -7.65,-3.431 -7.65,-7.649l0,-0.661z"/>
  <path id="svg_19" d="m109.986,156.063l234.704,0c12.612,0 22.871,-10.26 22.871,-22.872l0,-0.66c0,-12.611 -10.26,-22.87 -22.871,-22.87l-234.704,0c-12.612,0 -22.872,10.26 -22.872,22.87l0,0.66c0,12.612 10.26,22.872 22.872,22.872zm-7.65,-23.531c0,-4.217 3.432,-7.649 7.65,-7.649l234.704,0c4.217,0 7.65,3.431 7.65,7.649l0,0.66c0,4.217 -3.432,7.65 -7.65,7.65l-234.704,0c-4.217,0 -7.65,-3.432 -7.65,-7.65l0,-0.66z"/>
  <path id="svg_20" d="m227.386,192.96l0,-0.66c0,-12.611 -10.26,-22.87 -22.872,-22.87l-92.16,0c-12.612,0 -22.872,10.26 -22.872,22.87l0,0.66c0,12.612 10.26,22.872 22.872,22.872l92.16,0c12.612,-0.001 22.872,-10.261 22.872,-22.872zm-122.681,0l0,-0.66c0,-4.217 3.432,-7.649 7.65,-7.649l92.16,0c4.217,0 7.65,3.431 7.65,7.649l0,0.66c0,4.217 -3.432,7.65 -7.65,7.65l-92.16,0c-4.218,-0.001 -7.65,-3.433 -7.65,-7.65z"/>
  <line transform="rotate(-180 226.49951171875,230.95262145996094) " stroke-linecap="null" stroke-linejoin="null" id="svg_23" y2="444.452625" x2="394.499512" y1="17.452625" x1="58.499512" stroke-width="10" stroke="#ff0000" fill="none"/>
  <line transform="rotate(-180 226.49951171875,230.95262145996094) " stroke-linecap="null" stroke-linejoin="null" id="svg_24" y2="444.452625" x2="394.499512" y1="17.452625" x1="58.499512" stroke-width="10" stroke="#ff0000" fill="none"/>
  <line stroke-linecap="null" stroke-linejoin="null" id="svg_26" y2="479.452625" x2="66.499512" y1="17.452625" x1="393.499512" stroke-width="10" stroke="#ff0000" fill="none"/>
 </g>
</svg>