<svg xmlns="http://www.w3.org/2000/svg" version="1.1" xmlns:xlink="http://www.w3.org/1999/xlink" xmlns:svgjs="http://svgjs.dev/svgjs" id="BgenPttrnSvgRootPreview" width="100%" height="100%"><defs><pattern x="0" y="0" width="1" height="1" patternUnits="userSpaceOnUse" id="BgenPttrnLayer1"><g id="PatternRootContent1"><g id="BgenPttrnLayer1background"><rect width="1" height="1" id="BgenPttrnBackground1" class="color_1 fill_color_1" fill="#000000"></rect></g></g></pattern><pattern x="0" y="0" width="20" height="36" patternUnits="userSpaceOnUse" id="BgenPttrnLayer2" patternTransform="matrix(-1,1.2246467991473532e-16,-1.2246467991473532e-16,-1,0,0)"><g id="PatternRootContent2"><g id="BgenPttrnLayer2Element1"><use xlink:href="#BgenPttrnElement1" x="8" y="-21" transform="translate(18.310261726379395, -10.689738273620605) scale(1) translate(-18.310261726379395, 10.689738273620605) rotate(10, 20, -9)"></use><use xlink:href="#BgenPttrnElement1" x="-12" y="-21" transform="translate(-1.6897382736206055, -10.689738273620605) scale(1) translate(1.6897382736206055, 10.689738273620605) rotate(10, 0, -9)"></use><use xlink:href="#BgenPttrnElement1" x="-2" y="-3" transform="translate(8.310261726379395, 7.3102617263793945) scale(1) translate(-8.310261726379395, -7.3102617263793945) rotate(10, 10, 9)"></use><use xlink:href="#BgenPttrnElement1" x="-22" y="-3" transform="translate(-11.689738273620605, 7.3102617263793945) scale(1) translate(11.689738273620605, -7.3102617263793945) rotate(10, -10, 9)"></use><use xlink:href="#BgenPttrnElement1" x="18" y="-3" transform="translate(28.310261726379395, 7.3102617263793945) scale(1) translate(-28.310261726379395, -7.3102617263793945) rotate(10, 30, 9)"></use><use xlink:href="#BgenPttrnElement1" x="8" y="15" transform="translate(18.310261726379395, 25.310261726379395) scale(1) translate(-18.310261726379395, -25.310261726379395) rotate(10, 20, 27)"></use><use xlink:href="#BgenPttrnElement1" x="-12" y="15" transform="translate(-1.6897382736206055, 25.310261726379395) scale(1) translate(1.6897382736206055, -25.310261726379395) rotate(10, 0, 27)"></use><use xlink:href="#BgenPttrnElement1" x="-2" y="33" transform="translate(8.310261726379395, 43.310261726379395) scale(1) translate(-8.310261726379395, -43.310261726379395) rotate(10, 10, 45)"></use><use xlink:href="#BgenPttrnElement1" x="-2" y="33" transform="translate(8.310261726379395, 43.310261726379395) scale(1) translate(-8.310261726379395, -43.310261726379395) rotate(10, 10, 45)"></use></g></g></pattern><symbol id="BgenPttrnElement1"><path d="M22.88,10.41C20.77,12.18 17.61,11.9 15.84,9.79C14.06,7.67 14.34,4.5 16.45,2.75L16.96,2.37C15.27,4.19 15.16,7.03 16.8,9C18.43,10.94 21.25,11.32 23.34,9.97L22.88,10.41M21.1,14.5C17.93,17.17 13.2,16.76 10.54,13.58C7.87,10.41 8.29,5.68 11.46,3L12.38,2.36C9.96,5.09 9.84,9.26 12.26,12.14C14.68,15 18.8,15.63 21.91,13.72L21.1,14.5M19.97,19.38C15.53,23.11 8.9,22.53 5.17,18.08C1.45,13.64 2.03,7 6.47,3.29L7.58,2.5C4.07,6.3 3.85,12.23 7.28,16.32C10.71,20.4 16.59,21.22 20.96,18.43L19.97,19.38Z" class="color_2 fill_color_2" fill="#171616"></path></symbol></defs><rect width="100%" height="100%" id="BgenPttrnRctLayer1" fill="url(&quot;#BgenPttrnLayer1&quot;)"></rect><rect width="100%" height="100%" id="BgenPttrnRctLayer2" fill="url(&quot;#BgenPttrnLayer2&quot;)"></rect></svg>